<?xml version="1.0" encoding="UTF-8" standalone="no"?>
<!-- Created with Inkscape (http://www.inkscape.org/) -->
<svg
   xmlns:svg="http://www.w3.org/2000/svg"
   xmlns="http://www.w3.org/2000/svg"
   version="1.0"
   width="500"
   height="373.28"
   id="svg2">
  <defs
     id="defs4" />
  <g
     transform="translate(589.99999,-317.36791)"
     id="layer1">
    <path
       d="M -579.99999,504.00791 L -579.99999,327.36791 L -339.99999,327.36791 L -99.99999,327.36791 L -99.99999,504.00791 L -99.99999,680.64791 L -339.99999,680.64791 L -579.99999,680.64791 L -579.99999,504.00791 z M -100.95999,504.00791 L -100.95999,328.32791 L -339.99999,328.32791 L -579.03999,328.32791 L -579.03999,504.00791 L -579.03999,679.68791 L -339.99999,679.68791 L -100.95999,679.68791 L -100.95999,504.00791 z M -231.11088,631.38209 C -238.25499,629.09688 -242.02766,622.23139 -242.05891,611.45892 C -242.08694,601.7934 -240.11942,596.29994 -234.90967,591.49777 C -230.04869,587.01707 -226.05524,585.62847 -216.00932,584.92574 C -207.31759,584.31776 -207.92516,585.58573 -207.98324,568.17556 C -208.02843,554.62824 -209.05741,552.00791 -214.33212,552.00791 C -218.14128,552.00791 -218.54206,553.40341 -216.25783,558.71324 C -211.72432,569.25169 -216.83321,578.91878 -226.91231,578.87376 C -233.7553,578.84318 -238.23556,573.65203 -238.2385,565.75041 C -238.24319,553.08694 -229.77905,547.50948 -211.95071,548.42807 C -196.46544,549.22593 -189.09694,552.98484 -186.58535,561.36777 C -185.81997,563.92239 -185.43999,573.85338 -185.43999,591.3024 C -185.43999,608.15764 -185.07259,618.10063 -184.40359,619.35067 C -183.41575,621.19645 -183.28079,621.20902 -181.52359,619.61877 C -179.75599,618.01912 -179.67999,618.04178 -179.67999,620.1685 C -179.67999,623.10287 -183.81552,628.41367 -187.64961,630.40301 C -189.42216,631.32271 -192.7489,631.95676 -195.51999,631.90306 C -199.81231,631.81987 -200.64998,631.43128 -203.43999,628.22903 C -205.15599,626.25947 -206.55999,623.85599 -206.55999,622.88796 C -206.55999,620.30953 -208.14219,620.73983 -209.95685,623.81179 C -213.43627,629.70198 -224.25718,633.57441 -231.11088,631.38209 z M -211.7437,622.31321 C -209.22288,620.63002 -208.43745,616.68356 -208.12423,604.12719 C -207.9426,596.84558 -207.99456,590.34791 -208.2397,589.68791 C -208.48484,589.02791 -209.9241,588.48791 -211.43805,588.48791 C -215.4908,588.48791 -217.2352,592.55954 -217.55711,602.77057 C -218.04719,618.31558 -216.0105,625.16222 -211.7437,622.31321 z M -421.11999,629.89526 C -432.67573,624.62753 -439.37275,612.28426 -440.49802,594.17959 C -441.82293,572.86305 -432.90608,554.42656 -418.97572,549.68001 C -412.88543,547.60483 -402.90973,547.75185 -398.07999,549.98793 C -389.62065,553.90449 -384.91276,562.45094 -384.84867,574.00739 C -384.79925,582.91877 -386.26721,587.66698 -390.05773,590.85649 C -398.42607,597.89798 -407.58027,587.46617 -405.74167,572.98361 C -404.98865,567.05208 -403.56782,563.96849 -400.0912,560.72057 C -397.15815,557.98045 -396.93196,555.79004 -399.35558,553.5967 C -402.07488,551.13576 -407.4544,551.56414 -410.36355,554.47329 C -414.07086,558.1806 -415.1602,564.81738 -415.31121,584.61697 C -415.50453,609.96387 -414.26294,618.40578 -409.60205,623.43496 C -406.5185,626.76216 -401.26269,626.80925 -396.47011,623.5526 C -393.12053,621.27651 -387.03999,611.206 -387.03999,607.93457 C -387.03999,607.18291 -386.49999,606.75673 -385.83999,606.9875 C -384.17766,607.56875 -384.73619,610.05976 -388.08667,617.00762 C -391.32109,623.7148 -397.09041,629.26882 -402.33725,630.72637 C -407.80507,632.24531 -416.8419,631.84545 -421.11999,629.89526 z M -281.68529,630.31708 C -294.43029,625.76899 -301.61515,611.37406 -301.5858,590.44621 C -301.54875,564.02702 -290.68822,547.80999 -273.09053,547.89686 C -260.64513,547.95829 -251.89116,557.05118 -247.40406,574.57779 C -246.59161,577.75122 -245.81734,583.58322 -245.68343,587.53779 L -245.43999,594.72791 L -261.27999,594.72791 L -277.11999,594.72791 L -276.91058,605.18077 C -276.67735,616.82338 -275.72313,620.81083 -272.42978,623.90476 C -268.73562,627.37525 -264.3518,627.49594 -259.55518,624.25917 C -255.40392,621.45788 -248.79999,613.24211 -248.79999,610.87893 C -248.79999,610.17987 -248.36799,609.60791 -247.83999,609.60791 C -245.92582,609.60791 -246.97534,613.08946 -250.62232,618.8376 C -254.62644,625.14867 -258.86215,628.85394 -264.06324,630.59533 C -268.40857,632.0502 -277.21841,631.91109 -281.68529,630.31708 z M -268.24263,573.60791 C -267.9959,555.64549 -268.63323,551.89445 -272.0435,551.23769 C -272.93255,551.06648 -274.35286,552.02031 -275.25183,553.3923 C -276.59489,555.44207 -276.89145,558.75411 -277.02359,573.17986 C -277.11088,582.70902 -276.96795,590.71995 -276.70597,590.98193 C -276.44399,591.24391 -274.48597,591.32992 -272.35482,591.17308 L -268.47999,590.88791 L -268.24263,573.60791 z M -538.71999,628.91198 C -538.71999,627.79984 -537.83414,626.87372 -536.43431,626.52238 C -535.09226,626.18554 -533.50694,624.59646 -532.59431,622.67323 C -531.2231,619.78361 -531.03999,613.44912 -531.03999,568.90282 L -531.03999,518.40791 L -534.39999,518.40791 C -537.02557,518.40791 -537.75999,518.02087 -537.75999,516.63719 C -537.75999,515.00474 -536.42968,514.82075 -520.7241,514.28108 C -511.35435,513.95912 -503.38144,514.00246 -503.00651,514.37739 C -502.63158,514.75232 -500.13421,524.99256 -497.45679,537.13349 C -494.77938,549.27442 -492.11214,561.04391 -491.52962,563.28791 C -490.47296,567.35829 -488.79999,568.84686 -488.79999,565.71665 C -488.79999,564.80846 -487.52876,558.65246 -485.97504,552.03665 C -484.42131,545.42084 -481.79213,534.06791 -480.13243,526.80791 L -477.11476,513.60791 L -461.95738,513.60791 C -453.62082,513.60791 -445.44999,513.33791 -443.79999,513.00791 C -441.21495,512.4909 -440.79999,512.68207 -440.79999,514.38995 C -440.79999,515.98736 -441.49863,516.42983 -444.39999,516.66995 L -447.99999,516.96791 L -448.24792,571.44791 L -448.49584,625.92791 L -444.64792,625.92791 C -441.43999,625.92791 -440.79999,626.24725 -440.79999,627.84791 C -440.79999,629.71226 -441.43999,629.76791 -462.87999,629.76791 C -484.09093,629.76791 -484.95999,629.69462 -484.95999,627.90586 C -484.95999,626.44713 -484.18024,625.97928 -481.35999,625.74586 L -477.75999,625.44791 L -477.5902,578.52612 C -477.49681,552.71913 -477.77441,531.98313 -478.20708,532.44612 C -478.63974,532.9091 -480.36957,539.55191 -482.05112,547.20791 C -484.88969,560.13168 -487.0097,569.44327 -496.03937,608.64791 C -497.92432,616.83191 -499.71086,624.90575 -500.00945,626.58978 C -500.48636,629.2795 -502.74956,631.49835 -503.87162,630.37627 C -504.32346,629.92444 -509.1955,609.5745 -511.94664,596.64791 C -512.958,591.89591 -515.26184,581.74391 -517.06631,574.08791 C -518.87077,566.43191 -521.7186,554.11991 -523.39482,546.72791 C -525.07104,539.33591 -526.82893,532.87751 -527.30124,532.37591 C -528.67995,530.9117 -528.29617,617.0508 -526.90581,621.12791 C -526.13494,623.3884 -524.74582,624.95913 -522.66076,625.92791 C -520.91935,626.73703 -519.55244,628.10394 -519.54076,629.04791 C -519.52235,630.53729 -520.60922,630.72791 -529.11999,630.72791 C -537.8966,630.72791 -538.71999,630.57216 -538.71999,628.91198 z M -384.15999,627.92024 C -384.15999,626.23586 -383.56646,625.92791 -380.31999,625.92791 L -376.47999,625.92791 L -376.47999,571.68791 L -376.47999,517.44791 L -380.31999,517.44791 C -383.51999,517.44791 -384.15999,517.12791 -384.15999,515.52791 C -384.15999,513.6485 -383.51999,513.60791 -353.88915,513.60791 C -320.50125,513.60791 -319.41523,513.76966 -313.27808,519.65656 C -308.93141,523.826 -307.61804,526.62324 -306.38601,534.33538 C -305.01284,542.93112 -306.47455,551.97388 -310.09617,557.28791 C -313.01701,561.57369 -320.79598,566.35093 -324.91011,566.38548 C -327.39552,566.40635 -329.44808,568.63981 -328.16293,569.92497 C -327.85809,570.22981 -325.61962,570.85082 -323.18856,571.30499 C -316.09367,572.63046 -312.14401,575.00642 -309.12686,579.76398 C -305.45461,585.55451 -304.32841,590.10809 -304.32841,599.16558 C -304.32841,609.38357 -306.51313,616.41207 -311.30524,621.6109 C -317.90423,628.76996 -319.78323,629.11771 -354.15999,629.54216 C -384.002,629.91061 -384.15999,629.90207 -384.15999,627.92024 z M -338.63142,623.51427 C -335.53596,620.17421 -335.19999,617.62296 -335.19999,597.45707 C -335.19999,575.15623 -336.5623,571.20791 -344.25688,571.20791 L -346.71999,571.20791 L -346.71999,598.56791 L -346.71999,625.92791 L -343.79415,625.92791 C -341.90198,625.92791 -340.07805,625.0752 -338.63142,623.51427 z M -340.57295,566.27558 C -336.841,564.5752 -336.15999,560.78838 -336.15999,541.73698 C -336.15999,520.1286 -337.06924,517.44791 -344.39851,517.44791 L -346.71999,517.44791 L -346.71999,541.76791 C -346.71999,555.14391 -346.43199,566.37591 -346.07999,566.72791 C -345.14292,567.66498 -343.28794,567.51262 -340.57295,566.27558 z M -177.75999,627.94945 C -177.75999,626.5969 -177.00526,625.9686 -175.11999,625.75167 L -172.47999,625.44791 L -172.47999,571.20791 L -172.47999,516.96791 L -175.11999,516.66415 C -176.63103,516.49028 -177.75999,515.77185 -177.75999,514.98415 C -177.75999,514.22721 -177.65199,513.60359 -177.51999,513.59832 C -177.38799,513.59305 -171.66399,512.95347 -164.79999,512.17705 C -157.93599,511.40062 -151.56399,510.75694 -150.63999,510.74664 C -149.05845,510.729 -148.95999,514.10363 -148.95999,568.32791 L -148.95999,625.92791 L -146.07999,625.92791 C -142.77463,625.92791 -142.06882,628.28818 -145.13444,629.08985 C -146.19838,629.36808 -153.97438,629.65146 -162.41444,629.71959 C -177.09165,629.83807 -177.75999,629.76097 -177.75999,627.94945 z M -251.57027,540.84071 C -257.23942,536.86988 -259.57713,521.44491 -255.51861,514.78833 C -249.70064,505.24603 -239.71028,511.00861 -239.84118,523.83129 C -239.87642,527.28276 -240.5116,529.6453 -241.94582,531.65949 C -244.2283,534.86495 -244.48999,536.23176 -242.99777,537.154 C -239.79823,539.13142 -233.13122,529.77392 -228.15331,516.31899 L -224.76831,507.16963 L -236.86177,474.14877 C -243.51318,455.9873 -249.82397,438.64391 -250.88575,435.60791 C -252.6533,430.55383 -253.05785,430.08791 -255.67851,430.08791 C -257.88807,430.08791 -258.46678,429.70481 -258.21632,428.40791 C -257.9334,426.94289 -256.78806,426.74712 -249.26593,426.87799 C -244.52166,426.96054 -236.21199,427.06854 -230.79999,427.11799 C -222.73329,427.1917 -220.95999,427.46742 -220.95999,428.64791 C -220.95999,429.54391 -221.86665,430.08791 -223.35999,430.08791 C -224.67999,430.08791 -225.75999,430.49654 -225.75999,430.99598 C -225.75999,431.49543 -223.99857,436.78743 -221.84573,442.75598 C -219.69289,448.72454 -216.79321,456.95591 -215.402,461.04791 C -214.01079,465.13991 -212.57564,468.48791 -212.21278,468.48791 C -211.04854,468.48791 -202.47758,444.17147 -201.99239,439.49197 C -201.56952,435.41341 -201.81453,434.68567 -204.52208,431.97812 C -206.17093,430.32927 -207.51999,428.58145 -207.51999,428.09407 C -207.51999,427.60667 -203.84799,427.20791 -199.35999,427.20791 C -192.21186,427.20791 -191.19999,427.41736 -191.19999,428.89698 C -191.19999,429.82597 -192.05384,431.1193 -193.09745,431.77104 C -196.19245,433.7039 -197.67324,437.30614 -211.15052,475.68791 C -229.3151,527.41861 -232.88745,535.39168 -240.06195,540.21495 C -243.89358,542.79088 -248.43357,543.03774 -251.57027,540.84071 z M -411.99999,504.04267 C -411.99999,502.96756 -411.41894,502.08791 -410.70878,502.08791 C -407.15781,502.08791 -405.2613,496.99112 -399.99234,473.28791 C -398.05575,464.57591 -394.82655,450.10391 -392.81633,441.12791 C -390.80611,432.15191 -387.49607,417.14095 -385.46068,407.77023 L -381.75999,390.73255 L -371.67999,390.73039 L -361.59999,390.72823 L -358.88052,402.48807 C -357.38481,408.95599 -355.14339,418.99991 -353.89959,424.80791 C -348.28561,451.02264 -341.10956,482.93559 -337.27769,498.72791 C -336.74352,500.92938 -335.96409,501.67948 -333.96943,501.91167 C -332.1346,502.12526 -331.35999,502.76647 -331.35999,504.07167 C -331.35999,505.85166 -332.24733,505.92791 -352.95999,505.92791 C -373.91999,505.92791 -374.55999,505.87102 -374.55999,504.00791 C -374.55999,502.44277 -373.91999,502.08791 -371.09728,502.08791 C -368.73584,502.08791 -367.77248,501.70626 -368.06821,500.88791 C -368.30671,500.22791 -369.94718,492.45191 -371.71369,483.60791 L -374.92554,467.52791 L -378.34276,467.40902 C -380.22224,467.34364 -384.64178,467.15016 -388.16399,466.97908 C -392.3257,466.77694 -394.89387,467.07066 -395.49872,467.81796 C -396.93038,469.58681 -399.81277,483.56168 -400.24991,490.85346 C -400.70265,498.40551 -399.06799,502.08791 -395.2628,502.08791 C -393.6259,502.08791 -393.03984,502.56857 -393.21444,503.76791 C -393.42476,505.21264 -394.75723,505.48639 -402.7295,505.72267 C -411.50491,505.98276 -411.99999,505.89304 -411.99999,504.04267 z M -376.75932,462.36724 C -376.30274,461.91066 -383.658,425.35111 -384.79857,422.40791 C -385.18287,421.41623 -385.61865,421.86455 -386.19829,423.84791 C -386.95963,426.45296 -392.7145,452.03508 -394.23207,459.56039 L -394.85167,462.63287 L -388.78583,462.93625 C -381.93166,463.27904 -377.45954,463.06746 -376.75932,462.36724 z M -329.43999,504.00791 C -329.43999,502.52974 -328.79999,502.08791 -326.65883,502.08791 L -323.87767,502.08791 L -324.01883,448.08791 L -324.15999,394.08791 L -326.85704,393.77863 C -328.76964,393.55932 -329.46457,393.00453 -329.24631,391.87119 C -328.99642,390.57364 -326.86388,390.05854 -317.90926,389.13283 C -311.84316,388.50573 -305.47599,387.96008 -303.75999,387.92028 L -300.63999,387.84791 L -300.63999,444.96791 L -300.63999,502.08791 L -297.75999,502.08791 C -295.51999,502.08791 -294.87999,502.51457 -294.87999,504.00791 C -294.87999,505.8568 -295.51999,505.92791 -312.15999,505.92791 C -328.79999,505.92791 -329.43999,505.8568 -329.43999,504.00791 z M -292.51474,505.09316 C -293.93046,503.67744 -292.64268,502.08791 -290.07999,502.08791 L -287.19999,502.08791 L -287.19999,447.84791 L -287.19999,393.60791 L -290.07999,393.60791 C -292.1922,393.60791 -292.95999,393.15618 -292.95999,391.91346 C -292.95999,390.44035 -291.11026,390.0179 -278.79999,388.67957 C -271.01199,387.83287 -264.29504,387.33781 -263.87345,387.57943 C -263.45185,387.82106 -263.15374,412.92831 -263.21099,443.37333 C -263.26823,473.81835 -263.28918,499.48391 -263.25753,500.40791 C -263.21814,501.55777 -262.42043,502.08791 -260.7296,502.08791 C -258.91934,502.08791 -258.34336,502.52488 -258.57413,503.72317 C -258.85547,505.18407 -260.65805,505.36803 -275.47927,505.44842 C -284.60389,505.49792 -292.26985,505.33805 -292.51474,505.09316 z"
       id="path2396"
       style="fill:#193483;fill-opacity:1" />
  </g>
</svg>
